<svg width="30" height="30" viewBox="0 0 30 30" fill="none" xmlns="http://www.w3.org/2000/svg">
<rect width="30" height="30" rx="7" fill="#FF9F0A"/>
<path d="M15 23.4736C19.6318 23.4736 23.4668 19.6387 23.4668 15.0068C23.4668 10.3833 19.6235 6.54004 14.9917 6.54004C10.3682 6.54004 6.5332 10.3833 6.5332 15.0068C6.5332 19.6387 10.3765 23.4736 15 23.4736ZM15.0249 10.1924C17.4653 10.1924 19.3911 11.8276 19.8145 14.21H20.6694C21.0762 14.21 21.1509 14.5918 20.9351 14.8989L19.5654 16.8247C19.3164 17.165 18.918 17.1401 18.6855 16.8247L17.2993 14.8989C17.0835 14.5918 17.1665 14.21 17.5649 14.21H18.5195C18.1377 12.6909 16.7266 11.5454 15.0249 11.5454C14.1948 11.5454 13.5806 11.811 12.9663 12.2842C12.626 12.5332 12.2275 12.5913 11.937 12.2676C11.6382 11.9521 11.7295 11.5039 12.1445 11.1719C12.8833 10.5659 13.9541 10.1924 15.0249 10.1924ZM15.0415 19.7881C12.6011 19.7881 10.667 18.1528 10.252 15.7705H9.34717C8.94043 15.7705 8.86572 15.3887 9.08154 15.0815L10.4512 13.1475C10.7002 12.8154 11.0986 12.832 11.3228 13.1475L12.7173 15.0815C12.9331 15.3887 12.8501 15.7705 12.4434 15.7705H11.5469C11.9287 17.2812 13.3398 18.4268 15.0415 18.4268C15.8716 18.4268 16.4858 18.1694 17.1001 17.6963C17.4404 17.439 17.8306 17.3892 18.1294 17.7129C18.4365 18.0283 18.3369 18.4766 17.9219 18.8003C17.1831 19.4146 16.1123 19.7881 15.0415 19.7881Z" fill="white"/>
</svg>
