<svg width="30" height="30" viewBox="0 0 30 30" fill="none" xmlns="http://www.w3.org/2000/svg">
<rect width="30" height="30" rx="7" fill="#8E8E93"/>
<path d="M5.4209 20.5103C5.4209 22.1538 6.26758 23.0171 7.90283 23.0171H18.1709C19.8228 23.0171 20.686 22.1704 20.686 20.5435V17.0405C20.686 16.8745 20.8188 16.7998 20.9849 16.9326C21.4414 17.2812 21.981 17.5635 22.6948 17.5635C24.106 17.5635 25.2017 16.4512 25.2017 15.0234C25.2017 13.604 24.106 12.4917 22.6948 12.4917C21.981 12.4917 21.4414 12.7739 20.9849 13.1226C20.8188 13.2554 20.686 13.1807 20.686 13.0146V9.44531C20.686 7.81836 19.8228 6.97168 18.1709 6.97168H7.90283C6.26758 6.97168 5.4209 7.83496 5.4209 9.47852V13.0396C5.4209 13.5791 5.84424 13.936 6.34229 13.936C6.61621 13.936 6.90674 13.8198 7.16406 13.5708C7.5542 13.2056 8.03564 12.7407 8.99854 12.7407C10.252 12.7407 11.2397 13.7368 11.2397 15.0068C11.2397 16.2769 10.252 17.2729 8.99854 17.2729C8.03564 17.2729 7.5542 16.7998 7.16406 16.4346C6.90674 16.1938 6.61621 16.0776 6.34229 16.0776C5.84424 16.0776 5.4209 16.4346 5.4209 16.9741V20.5103Z" fill="white"/>
</svg>
