<svg width="30" height="30" viewBox="0 0 30 30" fill="none" xmlns="http://www.w3.org/2000/svg">
<rect width="30" height="30" rx="7" fill="#BF5AF2"/>
<path d="M6.51025 18.4268C6.51025 19.9956 7.37354 20.8257 8.93408 20.8257H22.0576C23.6265 20.8257 24.4897 19.9956 24.4897 18.4268V11.5786C24.4897 10.0181 23.6265 9.19629 22.0576 9.19629H8.93408C7.37354 9.19629 6.51025 10.0181 6.51025 11.5786V18.4268ZM11.3164 16.2354C10.6357 16.2354 10.0796 15.6875 10.0796 15.0068C10.0796 14.3262 10.6357 13.7783 11.3164 13.7783C11.9971 13.7783 12.5449 14.3262 12.5449 15.0068C12.5449 15.6875 11.9971 16.2354 11.3164 16.2354ZM15.5083 16.2354C14.8276 16.2354 14.2798 15.6875 14.2798 15.0068C14.2798 14.3262 14.8276 13.7783 15.5083 13.7783C16.189 13.7783 16.7368 14.3262 16.7368 15.0068C16.7368 15.6875 16.189 16.2354 15.5083 16.2354ZM19.7002 16.2354C19.0195 16.2354 18.4717 15.6875 18.4717 15.0068C18.4717 14.3262 19.0195 13.7783 19.7002 13.7783C20.3809 13.7783 20.9287 14.3262 20.9287 15.0068C20.9287 15.6875 20.3809 16.2354 19.7002 16.2354Z" fill="white"/>
</svg>
