<svg width="30" height="30" viewBox="0 0 30 30" fill="none" xmlns="http://www.w3.org/2000/svg">
<rect width="30" height="30" rx="7" fill="#FF9F0A"/>
<path d="M15.5 4.83008C12.5449 4.83008 10.1958 7.1792 10.1958 10.1177C10.1958 12.334 11.5239 14.293 13.5991 15.0815V23.2744C13.5991 23.4819 13.6655 23.6396 13.8149 23.7974L15.2012 25.1919C15.3423 25.333 15.6245 25.3745 15.7988 25.2002L18.4302 22.5688C18.6045 22.3862 18.5962 22.1455 18.4302 21.9712L16.7949 20.3608L19.0361 18.1279C19.1938 17.9619 19.1938 17.7212 19.0195 17.5386L16.8032 15.3057C19.3682 14.2847 20.7959 12.3921 20.7959 10.1177C20.7959 7.1958 18.4302 4.83008 15.5 4.83008ZM15.5 9.90186C14.6865 9.90186 14.0225 9.24609 14.0225 8.42432C14.0225 7.60254 14.6699 6.94678 15.5 6.94678C16.3135 6.94678 16.9775 7.61084 16.9775 8.42432C16.9775 9.24609 16.3135 9.90186 15.5 9.90186Z" fill="white"/>
</svg>
