<svg width="30" height="30" viewBox="0 0 30 30" fill="none" xmlns="http://www.w3.org/2000/svg">
<rect width="30" height="30" rx="7" fill="#30D158"/>
<path d="M15 23.4819C19.6318 23.4819 23.4668 19.647 23.4668 15.0151C23.4668 10.3916 19.6235 6.54834 14.9917 6.54834C10.3682 6.54834 6.5332 10.3916 6.5332 15.0151C6.5332 19.647 10.3765 23.4819 15 23.4819ZM18.3867 12.6245L17.3657 11.6118L17.9966 10.981C18.2788 10.7153 18.5942 10.6821 18.8516 10.9395L19.0425 11.1387C19.3081 11.396 19.2915 11.7197 19.0093 12.002L18.3867 12.6245ZM12.2607 18.7256L11.0737 19.1738C10.8911 19.2402 10.6836 19.0576 10.7749 18.8418L11.2563 17.7129L16.8511 12.1182L17.8721 13.1392L12.2607 18.7256Z" fill="white"/>
</svg>
