<svg width="22" height="22" viewBox="0 0 22 22" fill="none" xmlns="http://www.w3.org/2000/svg">
<path d="M11 22C17.0751 22 22 17.0751 22 11C22 4.92487 17.0751 0 11 0C4.92487 0 0 4.92487 0 11C0 17.0751 4.92487 22 11 22Z" fill="#2D374B"/>
<path d="M12.9268 10.5736L14.1826 8.46474L17.5674 13.6823L17.5691 14.6836L17.558 7.79336C17.55 7.62493 17.4596 7.47086 17.3155 7.37999L11.2214 3.91083C11.079 3.84146 10.8981 3.84227 10.7558 3.91303C10.7366 3.92251 10.7185 3.93289 10.7013 3.94422L10.68 3.95743L4.76482 7.3498L4.74189 7.36012C4.71238 7.37354 4.68251 7.39062 4.65455 7.41045C4.54237 7.49003 4.46791 7.60774 4.44382 7.73978C4.44019 7.75979 4.43751 7.78015 4.43628 7.80075L4.44558 13.4156L7.5984 8.57939C7.99538 7.93812 8.8602 7.73156 9.66307 7.74278L10.6053 7.76739L5.05325 16.5793L5.70773 16.9522L11.3263 7.77635L13.8097 7.76742L8.20565 17.1748L10.541 18.5042L10.82 18.663C10.9381 18.7105 11.0772 18.7129 11.1962 18.6704L17.3759 15.1261L16.1945 15.8037L12.9268 10.5736ZM13.4059 17.403L11.0472 13.7393L12.487 11.3212L15.5848 16.1534L13.4059 17.403Z" fill="#2D374B"/>
<path d="M11.0471 13.7403L13.4058 17.4041L15.5848 16.1544L12.487 11.3223L11.0471 13.7403Z" fill="#28A0F0"/>
<path d="M17.569 14.6837L17.5674 13.6824L14.1825 8.46484L12.9268 10.5737L16.1944 15.8038L17.3758 15.1262C17.4917 15.033 17.5618 14.8964 17.5692 14.7489L17.569 14.6837Z" fill="#28A0F0"/>
<path d="M3.38477 15.6277L5.05316 16.5791L10.6052 7.76723L9.66294 7.74262C8.86008 7.73139 7.99522 7.93796 7.59828 8.57922L4.44545 13.4155L3.38477 15.0284V15.6277Z" fill="white"/>
<path d="M13.8098 7.76758L11.3263 7.7765L5.70776 16.9524L7.67163 18.0714L8.20569 17.175L13.8098 7.76758Z" fill="white"/>
<path d="M18.6155 7.75553C18.5948 7.24153 18.3135 6.77099 17.8731 6.49705L11.6992 2.98328C11.2634 2.76615 10.7191 2.76587 10.2826 2.98314C10.231 3.0089 4.27864 6.42535 4.27864 6.42535C4.19626 6.46446 4.11691 6.51103 4.04227 6.56391C3.64907 6.8428 3.40939 7.27621 3.38477 7.75236V15.0293L4.44545 13.4164L4.43619 7.80155C4.43742 7.78101 4.44003 7.7608 4.44373 7.74086C4.46771 7.60875 4.54224 7.4909 4.65445 7.41125C4.68246 7.39142 10.7365 3.92331 10.7558 3.91379C10.898 3.84306 11.0789 3.84223 11.2214 3.91159L17.3154 7.38068C17.4596 7.47155 17.55 7.62562 17.558 7.79405V14.7495C17.5506 14.897 17.4917 15.0337 17.3758 15.1268L16.1944 15.8044L15.5848 16.154L13.4058 17.4037L11.1962 18.671C11.0771 18.7136 10.938 18.7112 10.82 18.6637L8.20556 17.1756L7.6715 18.072L10.021 19.4107C10.0987 19.4545 10.1679 19.4932 10.2247 19.5248C10.3126 19.5736 10.3726 19.6062 10.3937 19.6164C10.5607 19.6967 10.801 19.7434 11.0175 19.7434C11.216 19.7434 11.4096 19.7073 11.5927 19.6363L18.0109 15.9578C18.3793 15.6753 18.596 15.2493 18.6155 14.7879V7.75553Z" fill="#96BEDC"/>
</svg>
