<svg width="22" height="22" viewBox="0 0 22 22" fill="none" xmlns="http://www.w3.org/2000/svg">
<path d="M11 22C17.0751 22 22 17.0751 22 11C22 4.92487 17.0751 0 11 0C4.92487 0 0 4.92487 0 11C0 17.0751 4.92487 22 11 22Z" fill="#8247E5"/>
<path d="M14.7638 8.69681C14.5163 8.5562 14.1982 8.5562 13.9154 8.69681L11.9359 9.85682L10.5926 10.595L8.64847 11.755C8.40103 11.8956 8.08289 11.8956 7.8001 11.755L6.28012 10.8411C6.03268 10.7005 5.85594 10.4192 5.85594 10.1029V8.34529C5.85594 8.06407 5.99733 7.78286 6.28012 7.6071L7.8001 6.72831C8.04754 6.5877 8.36568 6.5877 8.64847 6.72831L10.1684 7.64225C10.4159 7.78286 10.5926 8.06407 10.5926 8.38044V9.54045L11.9359 8.76711V7.57195C11.9359 7.29074 11.7945 7.00952 11.5117 6.83376L8.68381 5.18163C8.43637 5.04102 8.11824 5.04102 7.83545 5.18163L4.93688 6.86891C4.65409 7.00952 4.5127 7.29074 4.5127 7.57195V10.8762C4.5127 11.1574 4.65409 11.4386 4.93688 11.6144L7.8001 13.2665C8.04754 13.4071 8.36568 13.4071 8.64847 13.2665L10.5926 12.1417L11.9359 11.3683L13.88 10.2435C14.1275 10.1029 14.4456 10.1029 14.7284 10.2435L16.2484 11.1223C16.4958 11.2629 16.6726 11.5441 16.6726 11.8605V13.6181C16.6726 13.8993 16.5312 14.1805 16.2484 14.3562L14.7638 15.235C14.5163 15.3756 14.1982 15.3756 13.9154 15.235L12.3954 14.3562C12.148 14.2156 11.9712 13.9344 11.9712 13.6181V12.4932L10.628 13.2665V14.4265C10.628 14.7078 10.7694 14.989 11.0522 15.1647L13.9154 16.8169C14.1628 16.9575 14.481 16.9575 14.7638 16.8169L17.627 15.1647C17.8744 15.0241 18.0512 14.7429 18.0512 14.4265V11.0871C18.0512 10.8059 17.9098 10.5247 17.627 10.3489L14.7638 8.69681Z" fill="white"/>
</svg>
