<svg width="96" height="96" viewBox="0 0 96 96" fill="none" xmlns="http://www.w3.org/2000/svg">
<path fill-rule="evenodd" clip-rule="evenodd" d="M48 96C74.5097 96 96 74.5097 96 48C96 21.4903 74.5097 0 48 0C21.4903 0 0 21.4903 0 48C0 74.5097 21.4903 96 48 96ZM39.2237 17.276C39.6251 16.3139 39.406 15.2047 38.6688 14.4675C37.9317 13.7304 36.8224 13.5112 35.8603 13.9127C22.8595 19.3376 13.7144 32.1726 13.7144 47.1496C13.7144 67.0318 29.8321 83.1496 49.7144 83.1496C64.6914 83.1496 77.5264 74.0044 82.9513 61.0036C83.3527 60.0415 83.1336 58.9323 82.3964 58.1951C81.6593 57.458 80.55 57.2388 79.5879 57.6403C75.9364 59.164 71.927 60.0067 67.7143 60.0067C50.6724 60.0067 36.8572 46.1915 36.8572 29.1496C36.8572 24.9369 37.7 20.9276 39.2237 17.276Z" fill="black"/>
</svg>
