<svg width="22" height="22" viewBox="0 0 22 22" fill="none" xmlns="http://www.w3.org/2000/svg">
<path d="M11 22C17.0751 22 22 17.0751 22 11C22 4.92487 17.0751 0 11 0C4.92487 0 0 4.92487 0 11C0 17.0751 4.92487 22 11 22Z" fill="#FF0420"/>
<path d="M7.96033 13.9331C7.34516 13.9331 6.84115 13.781 6.44827 13.4768C6.06056 13.1671 5.8667 12.7272 5.8667 12.1568C5.8667 12.0373 5.87963 11.8906 5.90546 11.7168C5.9727 11.3257 6.06833 10.8558 6.19239 10.3071C6.5439 8.81332 7.45116 8.06641 8.91413 8.06641C9.31217 8.06641 9.66885 8.13702 9.98421 8.27823C10.2996 8.41402 10.5477 8.62047 10.7286 8.89752C10.9095 9.1691 11 9.49504 11 9.87527C11 9.98935 10.9871 10.1333 10.9612 10.3071C10.8837 10.7906 10.7906 11.2605 10.6821 11.7168C10.5012 12.461 10.1884 13.0178 9.74382 13.3871C9.29924 13.7511 8.70477 13.9331 7.96033 13.9331ZM8.0689 12.7597C8.35842 12.7597 8.60394 12.6701 8.80556 12.4908C9.01236 12.3116 9.15968 12.0373 9.24754 11.6679C9.36643 11.1573 9.45694 10.7118 9.51897 10.3316C9.53963 10.2175 9.54996 10.1007 9.54996 9.98119C9.54996 9.48688 9.3044 9.23971 8.81333 9.23971C8.52381 9.23971 8.27569 9.32933 8.0689 9.50859C7.86731 9.68789 7.72255 9.96221 7.63469 10.3316C7.54162 10.6955 7.44856 11.141 7.35553 11.6679C7.33483 11.7765 7.3245 11.8906 7.3245 12.0101C7.3245 12.5099 7.57266 12.7597 8.0689 12.7597Z" fill="white"/>
<path d="M11.1773 13.9331C11.1141 13.9331 11.0652 13.9135 11.0308 13.8744C11.002 13.8297 10.9934 13.7794 11.0049 13.7235L12.1945 8.27593C12.206 8.21447 12.2376 8.16418 12.2893 8.12505C12.3411 8.08597 12.3956 8.06641 12.4531 8.06641H14.7461C15.384 8.06641 15.8954 8.19491 16.2805 8.45191C16.6713 8.70896 16.8667 9.08049 16.8667 9.56658C16.8667 9.70625 16.8494 9.85155 16.8149 10.0024C16.6713 10.6449 16.3811 11.1199 15.9443 11.4272C15.5133 11.7345 14.9214 11.8881 14.1685 11.8881H13.0048L12.6083 13.7235C12.5968 13.785 12.5652 13.8353 12.5135 13.8744C12.4617 13.9135 12.4071 13.9331 12.3497 13.9331H11.1773ZM14.2289 10.7315C14.4702 10.7315 14.68 10.6673 14.8581 10.5388C15.042 10.4103 15.1627 10.2259 15.2202 9.98563C15.2374 9.89063 15.2461 9.80684 15.2461 9.73421C15.2461 9.57217 15.1972 9.44925 15.0995 9.36545C15.0018 9.27603 14.8352 9.23137 14.5995 9.23137H13.5651L13.2375 10.7315H14.2289Z" fill="white"/>
</svg>
