<svg width="22" height="22" viewBox="0 0 22 22" fill="none" xmlns="http://www.w3.org/2000/svg">
<path d="M11 22C17.0751 22 22 17.0751 22 11C22 4.92487 17.0751 0 11 0C4.92487 0 0 4.92487 0 11C0 17.0751 4.92487 22 11 22Z" fill="#333333"/>
<path d="M10.9986 2.93359L10.8945 3.30122V13.9689L10.9986 14.0769L15.7639 11.1499L10.9986 2.93359Z" fill="white"/>
<path d="M10.9987 2.93359L6.2334 11.1499L10.9987 14.0769V8.89916V2.93359Z" fill="#8C8C8C"/>
<path d="M10.9986 15.0154L10.9399 15.0897V18.8898L10.9986 19.0678L15.7667 12.0898L10.9986 15.0154Z" fill="#7A7A7A"/>
<path d="M10.9987 19.0678V15.0154L6.2334 12.0898L10.9987 19.0678Z" fill="#8C8C8C"/>
<path d="M10.9985 14.0762L15.7637 11.1492L10.9985 8.89844V14.0762Z" fill="#CBCBCB"/>
<path d="M6.2334 11.1492L10.9986 14.0762V8.89844L6.2334 11.1492Z" fill="#545454"/>
</svg>
