<svg width="23" height="22" viewBox="0 0 23 22" fill="none" xmlns="http://www.w3.org/2000/svg">
<path d="M11.4902 14.8262C11.6953 14.8262 11.8613 14.7676 12.0566 14.5723L15.3574 11.3789C15.5039 11.2324 15.5918 11.0762 15.5918 10.8711C15.5918 10.4707 15.2793 10.1875 14.8789 10.1875C14.6836 10.1875 14.4883 10.2656 14.3516 10.4219L12.8672 11.9941L12.2129 12.6875L12.2715 11.2227V0.929688C12.2715 0.519531 11.9102 0.167969 11.4902 0.167969C11.0703 0.167969 10.7188 0.519531 10.7188 0.929688V11.2227L10.7773 12.6875L10.1133 11.9941L8.63867 10.4219C8.50195 10.2656 8.28711 10.1875 8.10156 10.1875C7.69141 10.1875 7.39844 10.4707 7.39844 10.8711C7.39844 11.0762 7.47656 11.2324 7.62305 11.3789L10.9238 14.5723C11.1289 14.7676 11.2949 14.8262 11.4902 14.8262ZM5.89453 21.252H17.0957C19.1367 21.252 20.1621 20.2363 20.1621 18.2246V8.47852C20.1621 6.4668 19.1367 5.45117 17.0957 5.45117H14.3711V7.02344H17.0664C18.0332 7.02344 18.5898 7.55078 18.5898 8.56641V18.1367C18.5898 19.1523 18.0332 19.6797 17.0664 19.6797H5.91406C4.9375 19.6797 4.40039 19.1523 4.40039 18.1367V8.56641C4.40039 7.55078 4.9375 7.02344 5.91406 7.02344H8.61914V5.45117H5.89453C3.85352 5.45117 2.82812 6.4668 2.82812 8.47852V18.2246C2.82812 20.2363 3.85352 21.252 5.89453 21.252Z" fill="white"/>
</svg>
