<svg width="20" height="20" viewBox="0 0 20 20" fill="none" xmlns="http://www.w3.org/2000/svg">
<path d="M6.71875 4.53125L10 1.25L13.2812 4.53125" stroke="#14171C" stroke-width="2" stroke-linecap="round" stroke-linejoin="round"/>
<path d="M10 10V1.25" stroke="#14171C" stroke-width="2" stroke-linecap="round" stroke-linejoin="round"/>
<path d="M13.75 7.5H15.625C15.7908 7.5 15.9497 7.56585 16.0669 7.68306C16.1842 7.80027 16.25 7.95924 16.25 8.125V16.25C16.25 16.4158 16.1842 16.5747 16.0669 16.6919C15.9497 16.8092 15.7908 16.875 15.625 16.875H4.375C4.20924 16.875 4.05027 16.8092 3.93306 16.6919C3.81585 16.5747 3.75 16.4158 3.75 16.25V8.125C3.75 7.95924 3.81585 7.80027 3.93306 7.68306C4.05027 7.56585 4.20924 7.5 4.375 7.5H6.25" stroke="#14171C" stroke-width="2" stroke-linecap="round" stroke-linejoin="round"/>
</svg>
