<svg width="30" height="30" viewBox="0 0 30 30" fill="none" xmlns="http://www.w3.org/2000/svg">
<rect width="30" height="30" rx="7" fill="#0A84FF"/>
<path d="M15 23.4736C19.6318 23.4736 23.4668 19.6304 23.4668 15.0068C23.4668 10.375 19.6235 6.54004 14.9917 6.54004C10.3682 6.54004 6.5332 10.375 6.5332 15.0068C6.5332 19.6304 10.3765 23.4736 15 23.4736ZM14.8257 16.7832C14.3857 16.7832 14.1367 16.5508 14.1367 16.1025V15.9946C14.1367 15.1479 14.6016 14.6997 15.2158 14.2681C15.9629 13.7451 16.3198 13.4629 16.3198 12.8818C16.3198 12.2344 15.8135 11.7944 15.0415 11.7944C14.4688 11.7944 14.0288 12.0767 13.7217 12.5747L13.5723 12.7822C13.4146 12.9814 13.2236 13.1226 12.9331 13.1226C12.6509 13.1226 12.3438 12.915 12.3438 12.5332C12.3438 12.3838 12.377 12.2427 12.4185 12.1099C12.6509 11.3213 13.6138 10.6323 15.0913 10.6323C16.5522 10.6323 17.8223 11.3877 17.8223 12.8154C17.8223 13.8447 17.2246 14.3428 16.3945 14.8906C15.7969 15.2808 15.5229 15.5879 15.5229 16.0693V16.1689C15.5229 16.5093 15.2573 16.7832 14.8257 16.7832ZM14.8091 19.3315C14.311 19.3315 13.8794 18.9331 13.8794 18.4434C13.8794 17.9536 14.3027 17.5469 14.8091 17.5469C15.3154 17.5469 15.7388 17.9453 15.7388 18.4434C15.7388 18.9414 15.3071 19.3315 14.8091 19.3315Z" fill="white"/>
</svg>
