<svg width="354" height="50" viewBox="0 0 354 50" fill="none" xmlns="http://www.w3.org/2000/svg">
<path fill-rule="evenodd" clip-rule="evenodd" d="M185.616 0L191.557 7.95088L188.517 10.1934L185.649 6.35441L182.952 10.04L179.889 7.8281L185.616 0ZM203.498 7.36358L201.976 16.9223L198.236 16.3346L198.952 11.8342L194.192 12.5334L193.638 8.81186L203.498 7.36358ZM167.84 7.39986L177.7 8.84814L177.146 12.5697L172.386 11.8704L173.102 16.3709L169.362 16.9586L167.84 7.39986ZM166.884 25.0384L170.748 22.1884L168.491 19.1677L160.488 25.0704L168.367 30.7604L170.593 27.7174L166.884 25.0384ZM202.811 19.1677L210.813 25.0704L202.934 30.7604L200.708 27.7174L204.417 25.0384L200.554 22.1884L202.811 19.1677ZM172.417 38.2157L173.121 33.4859L169.376 32.9357L167.918 42.7316L177.539 41.2198L176.947 37.5039L172.417 38.2157ZM201.981 32.9538L203.438 42.7498L193.817 41.2379L194.409 37.5221L198.939 38.2339L198.235 33.504L201.981 32.9538ZM191.557 42.0491L185.616 50L179.889 42.1719L182.952 39.96L185.649 43.6456L188.517 39.8066L191.557 42.0491Z" fill="black"/>
<path d="M221.797 36.4053H232.43C236.944 36.4053 239.686 33.6081 239.686 29.6121C239.686 26.8815 238.147 24.9168 235.941 24.0509C237.746 23.0852 239.017 21.1871 239.017 18.9227C239.017 15.3596 236.308 13.0952 232.029 13.0952H221.797V36.4053ZM225.91 32.6424V25.9491H231.861C234.202 25.9491 235.506 27.1146 235.506 29.2458C235.506 31.377 234.168 32.6424 231.861 32.6424H225.91ZM225.91 22.4192V16.8581H231.46C233.533 16.8581 234.837 17.7905 234.837 19.622C234.837 21.3869 233.6 22.4192 231.46 22.4192H225.91Z" fill="black"/>
<path d="M247.332 36.4053H250.809V32.9088H248.903C248.101 32.9088 247.8 32.5758 247.8 31.8099V13.0952H243.821V33.1752C243.821 35.5062 244.891 36.4053 247.332 36.4053Z" fill="black"/>
<path d="M261.008 36.9048C266.057 36.9048 269.535 33.4416 269.535 28.2801C269.535 23.1186 266.057 19.6553 261.008 19.6553C255.993 19.6553 252.515 23.1186 252.515 28.2801C252.515 33.4416 255.993 36.9048 261.008 36.9048ZM256.628 28.2801C256.628 25.2831 258.367 23.2518 261.008 23.2518C263.65 23.2518 265.422 25.2831 265.422 28.2801C265.422 31.2771 263.65 33.3084 261.008 33.3084C258.367 33.3084 256.628 31.2771 256.628 28.2801Z" fill="black"/>
<path d="M275.986 36.4053H280.701L283.91 24.6171L287.087 36.4053H291.802L296.683 20.1548H292.537L289.361 31.9764L286.184 20.1548H281.603L278.427 31.9764L275.25 20.1548H271.104L275.986 36.4053Z" fill="black"/>
<path d="M301.954 17.7239V20.1548H297.775V23.6514H301.954V36.4053H305.933V23.6514H311.183V20.1548H305.933V18.1568C305.933 17.0579 306.569 16.5917 307.605 16.5917H312.186V13.0952H306.702C303.727 13.0952 301.954 14.7269 301.954 17.7239Z" fill="black"/>
<path d="M314.283 36.4053H318.262V20.1548H314.283V36.4053ZM314.149 17.3243H318.429V13.2617H314.149V17.3243Z" fill="black"/>
<path d="M328.816 36.9048C333.163 36.9048 335.871 34.8069 335.871 31.5435C335.871 28.8462 334.099 27.048 331.023 26.6817L328.382 26.382C326.743 26.1822 325.974 25.6494 325.974 24.6837C325.974 23.5515 327.044 22.8855 328.749 22.8855C330.555 22.8855 331.692 23.4849 331.759 24.7836H335.738C335.537 21.3869 332.929 19.6553 328.816 19.6553C324.67 19.6553 322.062 21.6533 322.062 24.8835C322.062 27.6474 323.968 29.4456 327.011 29.7786L329.619 30.045C331.057 30.1782 331.859 30.711 331.859 31.7433C331.859 32.9421 330.756 33.708 328.95 33.708C326.944 33.708 325.774 33.042 325.64 31.6767H321.527C321.694 35.1066 324.369 36.9048 328.816 36.9048Z" fill="black"/>
<path d="M339.121 36.4053H343.1V27.1146C343.1 24.7836 344.537 23.2518 346.711 23.2518C348.817 23.2518 350.021 24.4506 350.021 26.9814V36.4053H354V26.5818C354 22.1861 351.526 19.6553 347.513 19.6553C345.708 19.6553 344.136 20.2547 343.1 21.4202V13.0952H339.121V36.4053Z" fill="black"/>
<path d="M0 16.4449H8.07417C10.143 16.4449 11.7425 16.9492 12.8727 17.9579C14.0029 18.9476 14.568 20.3274 14.568 22.0974C14.568 23.8864 14.0029 25.2853 12.8727 26.294C11.7425 27.3027 10.143 27.807 8.07417 27.807H2.15503V36.4285H0V16.4449ZM8.0167 25.8087C9.41507 25.8087 10.4878 25.4851 11.2349 24.838C11.9819 24.1909 12.3555 23.2774 12.3555 22.0974C12.3555 20.9174 11.9819 20.0134 11.2349 19.3853C10.4878 18.7573 9.41507 18.4432 8.0167 18.4432H2.15503V25.8087H8.0167Z" fill="black"/>
<path d="M23.2256 36.7997C21.8655 36.7997 20.6587 36.5047 19.6051 35.9147C18.5707 35.3057 17.7566 34.4682 17.1628 33.4024C16.5881 32.3176 16.3008 31.071 16.3008 29.6626C16.3008 28.2543 16.5881 27.0172 17.1628 25.9514C17.7566 24.8666 18.5707 24.0292 19.6051 23.4392C20.6587 22.8301 21.8655 22.5256 23.2256 22.5256C24.5665 22.5256 25.7541 22.8301 26.7886 23.4392C27.8421 24.0292 28.6562 24.8666 29.2309 25.9514C29.8247 27.0172 30.1217 28.2543 30.1217 29.6626C30.1217 31.071 29.8247 32.3176 29.2309 33.4024C28.6562 34.4682 27.8421 35.3057 26.7886 35.9147C25.7541 36.5047 24.5665 36.7997 23.2256 36.7997ZM18.4558 29.6626C18.4558 31.2233 18.8964 32.4889 19.7775 33.4595C20.6587 34.4302 21.808 34.9155 23.2256 34.9155C24.6431 34.9155 25.7829 34.4397 26.6449 33.4881C27.526 32.5175 27.9666 31.2423 27.9666 29.6626C27.9666 28.083 27.526 26.8174 26.6449 25.8658C25.7829 24.8951 24.6431 24.4098 23.2256 24.4098C21.808 24.4098 20.6587 24.8951 19.7775 25.8658C18.8964 26.8364 18.4558 28.102 18.4558 29.6626Z" fill="black"/>
<path d="M32.138 22.8967H34.3217L37.7698 34.0876L41.2178 22.8967H43.6027L47.0507 34.0876L50.4988 22.8967H52.6825L48.315 36.4285H45.8727L42.4246 25.3233L38.9478 36.4285H36.5055L32.138 22.8967Z" fill="black"/>
<path d="M61.2138 36.7997C59.8728 36.7997 58.6948 36.5047 57.6795 35.9147C56.6834 35.3247 55.9076 34.4873 55.3521 33.4024C54.7966 32.3176 54.5188 31.052 54.5188 29.6055C54.5188 28.1591 54.787 26.903 55.3233 25.8372C55.8789 24.7714 56.6451 23.953 57.622 23.3821C58.6181 22.8111 59.7483 22.5256 61.0126 22.5256C62.9857 22.5256 64.5469 23.1251 65.6962 24.3242C66.8456 25.5041 67.4202 27.1028 67.4202 29.1202C67.4202 29.2915 67.3915 29.6817 67.334 30.2907H56.6164C56.6547 31.7562 57.0857 32.9076 57.9094 33.745C58.7331 34.5824 59.8441 35.0011 61.2425 35.0011C62.1428 35.0011 62.9186 34.8013 63.5699 34.4016C64.2212 34.002 64.7097 33.4215 65.0353 32.6602H67.1616C66.7019 33.9734 65.9644 34.9916 64.9491 35.7148C63.9339 36.4381 62.6887 36.7997 61.2138 36.7997ZM65.3227 28.5778V28.378C65.3227 27.1599 64.93 26.1703 64.1446 25.409C63.3784 24.6287 62.3344 24.2385 61.0126 24.2385C59.7292 24.2385 58.6852 24.6382 57.8806 25.4375C57.0953 26.2369 56.6738 27.2836 56.6164 28.5778H65.3227Z" fill="black"/>
<path d="M71.0411 22.8967H72.9088V25.0379C73.0812 24.3717 73.4069 23.8484 73.8858 23.4677C74.3646 23.0871 74.9968 22.8967 75.7822 22.8967H78.4831V24.7238H75.6098C74.7478 24.7238 74.1156 24.9808 73.7134 25.4946C73.3111 26.0085 73.1099 26.7793 73.1099 27.807V36.4285H71.0411V22.8967Z" fill="black"/>
<path d="M86.2715 36.7997C84.9306 36.7997 83.7526 36.5047 82.7373 35.9147C81.7412 35.3247 80.9654 34.4873 80.4099 33.4024C79.8544 32.3176 79.5766 31.052 79.5766 29.6055C79.5766 28.1591 79.8448 26.903 80.3811 25.8372C80.9367 24.7714 81.7029 23.953 82.6798 23.3821C83.6759 22.8111 84.8061 22.5256 86.0704 22.5256C88.0435 22.5256 89.6047 23.1251 90.754 24.3242C91.9033 25.5041 92.478 27.1028 92.478 29.1202C92.478 29.2915 92.4493 29.6817 92.3918 30.2907H81.6742C81.7125 31.7562 82.1435 32.9076 82.9672 33.745C83.7909 34.5824 84.9019 35.0011 86.3003 35.0011C87.2006 35.0011 87.9764 34.8013 88.6277 34.4016C89.279 34.002 89.7675 33.4215 90.0931 32.6602H92.2194C91.7597 33.9734 91.0222 34.9916 90.0069 35.7148C88.9917 36.4381 87.7465 36.7997 86.2715 36.7997ZM90.3805 28.5778V28.378C90.3805 27.1599 89.9878 26.1703 89.2024 25.409C88.4361 24.6287 87.3922 24.2385 86.0704 24.2385C84.787 24.2385 83.743 24.6382 82.9384 25.4375C82.153 26.2369 81.7316 27.2836 81.6742 28.5778H90.3805Z" fill="black"/>
<path d="M101.673 36.7997C100.389 36.7997 99.2494 36.5047 98.2533 35.9147C97.2763 35.3057 96.5101 34.4682 95.9546 33.4024C95.4182 32.3176 95.15 31.071 95.15 29.6626C95.15 28.2543 95.4182 27.0172 95.9546 25.9514C96.5101 24.8666 97.2763 24.0292 98.2533 23.4392C99.2494 22.8301 100.389 22.5256 101.673 22.5256C102.803 22.5256 103.77 22.735 104.575 23.1537C105.398 23.5724 106.04 24.1719 106.5 24.9522V16.4449H108.597V36.4285H106.73V34.059C106.289 34.9345 105.628 35.6102 104.747 36.086C103.885 36.5618 102.86 36.7997 101.673 36.7997ZM97.3051 29.6626C97.3051 31.2423 97.7265 32.5175 98.5693 33.4881C99.4313 34.4397 100.562 34.9155 101.96 34.9155C103.358 34.9155 104.469 34.4397 105.293 33.4881C106.136 32.5175 106.557 31.2423 106.557 29.6626C106.557 28.083 106.136 26.8174 105.293 25.8658C104.469 24.8951 103.358 24.4098 101.96 24.4098C100.562 24.4098 99.4313 24.8951 98.5693 25.8658C97.7265 26.8174 97.3051 28.083 97.3051 29.6626Z" fill="black"/>
<path d="M127.688 36.7997C126.5 36.7997 125.476 36.5713 124.614 36.1145C123.751 35.6387 123.1 34.9631 122.66 34.0876V36.4285H120.792V16.4449H122.861V25.0093C123.301 24.21 123.933 23.6009 124.757 23.1822C125.581 22.7445 126.558 22.5256 127.688 22.5256C128.971 22.5256 130.102 22.8301 131.079 23.4392C132.075 24.0292 132.841 24.8666 133.377 25.9514C133.933 27.0172 134.211 28.2543 134.211 29.6626C134.211 31.071 133.933 32.3176 133.377 33.4024C132.841 34.4682 132.075 35.3057 131.079 35.9147C130.102 36.5047 128.971 36.7997 127.688 36.7997ZM122.803 29.6626C122.803 31.2423 123.215 32.5175 124.039 33.4881C124.882 34.4397 126.002 34.9155 127.401 34.9155C128.799 34.9155 129.92 34.4397 130.763 33.4881C131.625 32.5175 132.056 31.2423 132.056 29.6626C132.056 28.083 131.625 26.8174 130.763 25.8658C129.92 24.8951 128.799 24.4098 127.401 24.4098C126.002 24.4098 124.882 24.8951 124.039 25.8658C123.215 26.8174 122.803 28.083 122.803 29.6626Z" fill="black"/>
<path d="M135.964 39.6545H138.177C138.694 39.6545 139.077 39.5783 139.326 39.4261C139.594 39.2738 139.824 38.9979 140.016 38.5982L141.395 35.5721L135.591 22.8967H138.004L142.515 33.2312L147.027 22.8967H149.412L141.797 39.5403C141.472 40.2635 141.069 40.7774 140.59 41.0819C140.131 41.4054 139.451 41.5672 138.55 41.5672H135.964V39.6545Z" fill="black"/>
</svg>
