<svg width="72" height="72" viewBox="0 0 72 72" fill="none" xmlns="http://www.w3.org/2000/svg">
<path fill-rule="evenodd" clip-rule="evenodd" d="M35.9986 2.58258e-05C29.6146 -0.00763984 23.3447 1.69133 17.8381 4.92098H54.1567C48.6508 1.69177 42.3817 -0.00718544 35.9986 2.58258e-05ZM62.0607 11.18C63.5137 12.7021 64.8308 14.3482 65.9971 16.0997H5.99759C6.85907 14.8251 7.80187 13.6074 8.8202 12.4542H8.77688C8.86512 12.3536 8.95896 12.2596 9.05254 12.166C9.13195 12.0865 9.21118 12.0072 9.28664 11.9241C9.37968 11.8209 9.46952 11.7147 9.55935 11.6085L9.55938 11.6085L9.55941 11.6084L9.55943 11.6084L9.55946 11.6084C9.68246 11.463 9.80542 11.3177 9.93649 11.18H9.9977C11.2306 9.8674 12.5596 8.64845 13.9736 7.53324H33.8787C32.4642 8.64779 31.1351 9.86679 29.9028 11.18H62.0607ZM70.9307 27.2759C70.5132 25.599 69.9741 23.9548 69.3174 22.3563H22.6066C23.1102 21.1098 23.6828 19.8923 24.3219 18.7095H4.41673C3.77764 19.8921 3.20545 21.1096 2.70279 22.3563H2.68109C2.64621 22.4421 2.61522 22.5304 2.5842 22.6188L2.5842 22.6188C2.5563 22.6983 2.52838 22.7779 2.49761 22.8557C2.4584 22.9538 2.41654 23.0518 2.37444 23.1504C2.30708 23.3081 2.23908 23.4674 2.18027 23.6305H2.21216C1.7641 24.824 1.3812 26.0409 1.06522 27.2759H70.9307ZM71.907 33.5367H20.0198C20.0947 32.3154 20.2316 31.0987 20.4301 29.8913H0.526333C0.32676 31.0986 0.189378 32.3153 0.114724 33.5367H0.093024C0.0827941 33.6829 0.0788447 33.829 0.0749343 33.9737C0.0720251 34.0813 0.0691375 34.1882 0.0637012 34.2936C0.0600703 34.3759 0.0535722 34.4573 0.0470664 34.5389L0.0470653 34.5389C0.0398715 34.629 0.0326685 34.7193 0.0293228 34.8109H0.0446453C0.0396978 34.9387 0.0332783 35.0661 0.0268573 35.1936C0.0134321 35.46 0 35.7266 0 35.9972C0 36.8242 0.0382276 37.6435 0.093024 38.4564H71.907C71.9618 37.6435 72 36.8242 72 35.9972C72 35.1703 71.9618 34.351 71.907 33.5367ZM12.7018 63.4272H32.6069C34.2144 64.7926 35.9384 66.0145 37.7591 67.079H54.1623C48.6557 70.3087 42.3858 72.0076 36.0018 72C30.538 72.0023 25.1462 70.754 20.2395 68.3507H20.2063C20.1798 68.3368 20.1539 68.3225 20.1282 68.3081C20.1197 68.3034 20.1113 68.2987 20.1029 68.294L20.1028 68.2939C20.0593 68.2696 20.0162 68.2454 19.9719 68.2233C19.8647 68.1701 19.7594 68.1131 19.654 68.0561C19.5852 68.0189 19.5163 67.9817 19.4469 67.9455C18.9448 67.6855 18.4465 67.4205 17.9584 67.1376C17.938 67.1254 17.9168 67.1142 17.8955 67.103L17.8952 67.1028C17.8768 67.0931 17.8582 67.0833 17.8399 67.0727H17.854C16.0335 66.0102 14.3095 64.7904 12.7018 63.4272ZM23.7863 52.2498H3.88121C4.5291 53.506 5.24995 54.7233 6.03997 55.8953H6.0017C6.08022 56.0127 6.165 56.1246 6.24976 56.2365C6.3177 56.3262 6.38562 56.4158 6.45026 56.5082C6.51483 56.6005 6.57867 56.6992 6.64331 56.799L6.64335 56.7991C6.72412 56.9239 6.80616 57.0506 6.89251 57.1695H6.93327C7.85502 58.4488 8.85872 59.6669 9.93812 60.8163H62.0585C63.5112 59.2935 64.8283 57.6469 65.9949 55.8953H25.9413C25.1516 54.7238 24.432 53.5065 23.7863 52.2498ZM0.362105 41.0703H20.2672C20.4474 42.2975 20.6924 43.5144 21.0012 44.7158H70.931C70.5135 46.3927 69.9744 48.0369 69.3177 49.6354H2.68141C2.20162 48.4434 1.78602 47.2265 1.43639 45.99H1.41601C1.38769 45.8926 1.36422 45.7929 1.34075 45.6932C1.32092 45.6091 1.3011 45.5249 1.27835 45.4421C1.25004 45.3381 1.21894 45.2353 1.18783 45.1325C1.14612 44.9946 1.10439 44.8566 1.06935 44.7158H1.09611C0.78789 43.5143 0.542895 42.2974 0.362105 41.0703Z" fill="black"/>
</svg>
