<svg width="30" height="30" viewBox="0 0 30 30" fill="none" xmlns="http://www.w3.org/2000/svg">
<rect width="30" height="30" rx="7" fill="#1D9BF0"/>
<path d="M24.9608 8.93625C24.2121 9.26593 23.4188 9.48354 22.6067 9.58209C23.4618 9.06813 24.102 8.26213 24.4092 7.31292C23.6167 7.77542 22.7383 8.11209 21.8033 8.29959C21.1865 7.63995 20.3691 7.20244 19.478 7.05501C18.587 6.90757 17.6722 7.05846 16.8758 7.48425C16.0793 7.91003 15.4457 8.58688 15.0734 9.40969C14.701 10.2325 14.6108 11.1552 14.8167 12.0346C11.4083 11.8738 8.38917 10.2363 6.36667 7.76292C5.99899 8.38777 5.80722 9.10044 5.81167 9.82542C5.81167 11.2504 6.53667 12.5029 7.635 13.2388C6.98405 13.218 6.34748 13.042 5.77833 12.7254V12.7754C5.77796 13.7224 6.10522 14.6404 6.70459 15.3736C7.30395 16.1067 8.13851 16.61 9.06667 16.7979C8.46525 16.9591 7.83534 16.9833 7.22333 16.8688C7.48677 17.6838 7.99805 18.3962 8.68585 18.9067C9.37364 19.4171 10.2036 19.7002 11.06 19.7163C9.60961 20.8545 7.81873 21.4723 5.975 21.4704C5.65 21.4704 5.32583 21.4513 5 21.4146C6.87976 22.6182 9.06543 23.2571 11.2975 23.2554C18.8417 23.2554 22.9625 17.0088 22.9625 11.6013C22.9625 11.4263 22.9625 11.2513 22.95 11.0763C23.755 10.497 24.4494 9.77777 25 8.95292L24.9608 8.93625Z" fill="white"/>
</svg>
