<svg width="30" height="30" viewBox="0 0 30 30" fill="none" xmlns="http://www.w3.org/2000/svg">
<rect width="30" height="30" rx="7" fill="#0A84FF"/>
<path fill-rule="evenodd" clip-rule="evenodd" d="M15 5.44995C15.4142 5.44995 15.75 5.78574 15.75 6.19995V17.8893L18.9697 14.6696C19.2626 14.3767 19.7374 14.3767 20.0303 14.6696C20.3232 14.9625 20.3232 15.4374 20.0303 15.7303L15.5303 20.2303C15.2374 20.5232 14.7626 20.5232 14.4697 20.2303L9.96967 15.7303C9.67678 15.4374 9.67678 14.9625 9.96967 14.6696C10.2626 14.3767 10.7374 14.3767 11.0303 14.6696L14.25 17.8893V6.19995C14.25 5.78574 14.5858 5.44995 15 5.44995ZM6 18.95C6.41421 18.95 6.75 19.2857 6.75 19.7V21.95C6.75 22.7784 7.42157 23.45 8.25 23.45H21.75C22.5784 23.45 23.25 22.7784 23.25 21.95V19.7C23.25 19.2857 23.5858 18.95 24 18.95C24.4142 18.95 24.75 19.2857 24.75 19.7V21.95C24.75 23.6068 23.4069 24.95 21.75 24.95H8.25C6.59315 24.95 5.25 23.6068 5.25 21.95V19.7C5.25 19.2857 5.58579 18.95 6 18.95Z" fill="white"/>
</svg>
