<svg width="30" height="30" viewBox="0 0 30 30" fill="none" xmlns="http://www.w3.org/2000/svg">
<rect width="30" height="30" rx="7" fill="#8E8E93"/>
<path d="M8.51904 21.3071C8.51904 23.042 9.37402 23.9053 11.0923 23.9053H19.9077C21.626 23.9053 22.481 23.042 22.481 21.3071V8.71484C22.481 6.98828 21.626 6.1084 19.9077 6.1084H11.0923C9.37402 6.1084 8.51904 6.98828 8.51904 8.71484V21.3071ZM12.2544 10.7983C11.9473 10.7983 11.7231 10.5576 11.7231 10.2588C11.7231 9.96826 11.9473 9.74414 12.2544 9.74414H18.7539C19.0527 9.74414 19.2769 9.96826 19.2769 10.2588C19.2769 10.5576 19.0527 10.7983 18.7539 10.7983H12.2544ZM12.2544 13.7866C11.9473 13.7866 11.7231 13.5459 11.7231 13.2471C11.7231 12.9565 11.9473 12.7324 12.2544 12.7324H18.7539C19.0527 12.7324 19.2769 12.9565 19.2769 13.2471C19.2769 13.5459 19.0527 13.7866 18.7539 13.7866H12.2544ZM12.2544 16.7749C11.9473 16.7749 11.7231 16.5425 11.7231 16.252C11.7231 15.9531 11.9473 15.7207 12.2544 15.7207H15.3257C15.6411 15.7207 15.8569 15.9531 15.8569 16.252C15.8569 16.5425 15.6411 16.7749 15.3257 16.7749H12.2544Z" fill="white"/>
</svg>
