<svg width="64" height="64" viewBox="0 0 64 64" fill="none" xmlns="http://www.w3.org/2000/svg">
<rect width="64" height="64" fill="#FFCC00"/>
<path fill-rule="evenodd" clip-rule="evenodd" d="M32 52C43.0457 52 52 43.0457 52 32C52 20.9543 43.0457 12 32 12C20.9543 12 12 20.9543 12 32C12 43.0457 20.9543 52 32 52ZM28.3432 19.1983C28.5105 18.7975 28.4192 18.3353 28.112 18.0281C27.8049 17.721 27.3427 17.6297 26.9418 17.7969C21.5248 20.0573 17.7143 25.4052 17.7143 31.6457C17.7143 39.9299 24.43 46.6457 32.7143 46.6457C38.9547 46.6457 44.3027 42.8352 46.563 37.4182C46.7303 37.0173 46.639 36.5551 46.3318 36.248C46.0247 35.9408 45.5625 35.8495 45.1616 36.0168C43.6402 36.6516 41.9696 37.0028 40.2143 37.0028C33.1135 37.0028 27.3572 31.2465 27.3572 24.1457C27.3572 22.3904 27.7083 20.7198 28.3432 19.1983Z" fill="#F2F2F7"/>
</svg>
