<svg width="28" height="28" viewBox="0 0 28 28" fill="none" xmlns="http://www.w3.org/2000/svg">
<path fill-rule="evenodd" clip-rule="evenodd" d="M22.2794 10.0189C22.0842 9.6026 21.8537 9.20374 21.5904 8.82676L21.645 5.57832C20.4431 4.48299 19.0175 3.66196 17.4669 3.17207L14.6888 4.83457C14.23 4.80175 13.7695 4.80175 13.3107 4.83457L10.5216 3.16113C8.97589 3.6601 7.55497 4.48431 6.35441 5.57832L6.4091 8.82676C6.14579 9.20374 5.91525 9.6026 5.72004 10.0189L2.87629 11.5939C2.52977 13.1798 2.53351 14.8222 2.88723 16.4064L5.72004 17.9814C5.91758 18.4001 6.14799 18.8024 6.4091 19.1846L6.35441 22.4221C7.55633 23.5174 8.98194 24.3384 10.5325 24.8283L13.3107 23.1658C13.7695 23.1986 14.23 23.1986 14.6888 23.1658L17.4779 24.8393C19.0236 24.3403 20.4445 23.5161 21.645 22.4221L21.5904 19.1736C21.8537 18.7966 22.0842 18.3978 22.2794 17.9814L25.1232 16.4064C25.4697 14.8206 25.4659 13.1782 25.1122 11.5939L22.2794 10.0189ZM18.3751 14.0002C18.3751 16.4164 16.4164 18.3752 14.0001 18.3752C11.5839 18.3752 9.62512 16.4164 9.62512 14.0002C9.62512 11.5839 11.5839 9.62519 14.0001 9.62519C16.4164 9.62519 18.3751 11.5839 18.3751 14.0002Z" fill="#fff"/>
</svg>
