<svg width="20" height="20" viewBox="0 0 20 20" fill="none" xmlns="http://www.w3.org/2000/svg">
<path fill-rule="evenodd" clip-rule="evenodd" d="M15.9141 7.15625C15.7747 6.85886 15.61 6.57396 15.422 6.30469L15.461 3.98438C14.6025 3.20199 13.5842 2.61554 12.4766 2.26563L10.4923 3.45313C10.1646 3.42968 9.8356 3.42968 9.5079 3.45313L7.51571 2.25781C6.41163 2.61422 5.39669 3.20294 4.53915 3.98438L4.57821 6.30469C4.39013 6.57396 4.22546 6.85886 4.08602 7.15625L2.05477 8.28125C1.80726 9.41401 1.80993 10.5871 2.06258 11.7188L4.08602 12.8438C4.22712 13.1428 4.3917 13.4301 4.57821 13.7031L4.53915 16.0156C5.39766 16.798 6.41595 17.3845 7.52352 17.7344L9.5079 16.5469C9.8356 16.5703 10.1646 16.5703 10.4923 16.5469L12.4845 17.7422C13.5885 17.3858 14.6035 16.7971 15.461 16.0156L15.422 13.6953C15.61 13.426 15.7747 13.1411 15.9141 12.8438L17.9454 11.7188C18.1929 10.586 18.1902 9.41287 17.9376 8.28125L15.9141 7.15625ZM13.1254 10C13.1254 11.7259 11.7263 13.125 10.0004 13.125C8.27448 13.125 6.87537 11.7259 6.87537 10C6.87537 8.27411 8.27448 6.875 10.0004 6.875C11.7263 6.875 13.1254 8.27411 13.1254 10Z" fill="#14171C"/>
</svg>
