<svg width="30" height="30" viewBox="0 0 30 30" fill="none" xmlns="http://www.w3.org/2000/svg">
<rect width="30" height="30" rx="7" fill="#5E5CE6"/>
<path d="M16.2388 23.2412C19.7334 23.2412 22.0659 22.0044 22.0659 20.1782C22.0659 18.543 20.6714 18.1777 20.6714 17.2148C20.6714 15.8867 25.4941 15.6211 25.4941 12.2095C25.4941 8.83936 22.0161 6.61475 16.853 6.61475C10.0713 6.61475 5.49756 10.0015 5.49756 15.0732C5.49756 19.9541 9.83887 23.2412 16.2388 23.2412ZM17.0356 11.8359C16.272 11.8359 15.6245 11.2134 15.6245 10.4414C15.6245 9.66943 16.272 9.04688 17.0356 9.04688C17.8159 9.04688 18.4302 9.66943 18.4302 10.4414C18.4302 11.2134 17.8159 11.8359 17.0356 11.8359ZM12.6113 13.1475C11.6318 13.1475 10.8516 12.3838 10.8516 11.4043C10.8516 10.4497 11.6318 9.68604 12.6113 9.68604C13.5576 9.68604 14.3462 10.4497 14.3462 11.4043C14.3462 12.3838 13.5659 13.1475 12.6113 13.1475ZM20.9453 12.5664C20.3145 12.5664 19.7998 12.0684 19.7998 11.4375C19.7998 10.8149 20.3145 10.3003 20.9453 10.3003C21.5679 10.3003 22.0659 10.8149 22.0659 11.4375C22.0659 12.0684 21.5679 12.5664 20.9453 12.5664ZM9.42383 16.0859C8.66846 16.0859 8.0376 15.4551 8.0376 14.6914C8.0376 13.9609 8.69336 13.3218 9.42383 13.3218C10.1875 13.3218 10.8018 13.9277 10.8018 14.6914C10.8018 15.4551 10.1875 16.0859 9.42383 16.0859ZM16.0562 20.0703C14.8442 20.0703 13.8481 19.0825 13.8481 17.8623C13.8481 16.6504 14.8442 15.6543 16.0562 15.6543C17.2764 15.6543 18.2725 16.6504 18.2725 17.8623C18.2725 19.0825 17.2764 20.0703 16.0562 20.0703Z" fill="white"/>
</svg>
