<svg width="30" height="30" viewBox="0 0 30 30" fill="none" xmlns="http://www.w3.org/2000/svg">
<rect width="30" height="30" rx="7" fill="#BF5AF2"/>
<path d="M15 23.4736C19.6318 23.4736 23.4668 19.6304 23.4668 15.0068C23.4668 10.375 19.6235 6.54004 14.9917 6.54004C10.3682 6.54004 6.5332 10.375 6.5332 15.0068C6.5332 19.6304 10.3765 23.4736 15 23.4736ZM11.5635 16.5425V11.9189C11.5635 11.6201 11.8125 11.3628 12.1279 11.3628C12.4185 11.3628 12.6758 11.6201 12.6758 11.9189V14.8242C12.8003 14.7495 12.9248 14.6665 13.0825 14.6001V10.3584C13.0825 10.0596 13.3315 9.81885 13.6304 9.81885C13.9292 9.81885 14.1865 10.0596 14.1865 10.3584V14.2432C14.3276 14.2183 14.4688 14.2017 14.6182 14.1851V9.93506C14.6182 9.64453 14.8589 9.38721 15.166 9.38721C15.4731 9.38721 15.7139 9.64453 15.7139 9.93506V14.2349C15.855 14.2764 15.9961 14.3262 16.1289 14.3594V10.6572C16.1289 10.3584 16.3696 10.1094 16.6768 10.1094C16.9673 10.1094 17.2163 10.3584 17.2163 10.6572V15.8701C17.2163 16.0195 17.2744 16.0859 17.3823 16.0859C17.457 16.0859 17.5234 16.0361 17.5898 15.8784L18.2871 14.4175C18.5195 13.9443 18.7021 13.7451 19.0342 13.7451C19.3164 13.7451 19.5239 13.936 19.5239 14.21C19.5239 14.4424 19.3413 14.9653 19.2085 15.3887C18.9014 16.4097 18.6108 17.2896 18.229 18.0283C17.54 19.4395 16.5024 20.0454 14.9917 20.0454C12.9746 20.0454 11.5635 18.709 11.5635 16.5425Z" fill="white"/>
</svg>
