<svg width="20" height="20" viewBox="0 0 20 20" fill="none" xmlns="http://www.w3.org/2000/svg">
<path fill-rule="evenodd" clip-rule="evenodd" d="M4.25 3.75C2.59315 3.75 1.25 5.09315 1.25 6.75V8.75V9.25V13.25C1.25 14.9069 2.59315 16.25 4.25 16.25H15.75C17.4069 16.25 18.75 14.9069 18.75 13.25V9.25V8.75V6.75C18.75 5.09315 17.4069 3.75 15.75 3.75H4.25ZM17.5 8.75V8.5C17.5 7.94772 17.0523 7.5 16.5 7.5H3.5C2.94772 7.5 2.5 7.94772 2.5 8.5V8.75H5.5C6.46393 8.75 7.24262 9.5296 7.95183 10.2396C8.0553 10.3432 8.1573 10.4453 8.25818 10.5433C8.70839 10.9807 9.32275 11.25 10 11.25C10.6773 11.25 11.2916 10.9807 11.7418 10.5433C11.8427 10.4453 11.9447 10.3432 12.0482 10.2396C12.7574 9.5296 13.5361 8.75 14.5 8.75H17.5ZM15.75 6.25C16.4031 6.25 17.0074 6.45869 17.5 6.81302V6C17.5 5.44772 17.0523 5 16.5 5H3.5C2.94772 5 2.5 5.44772 2.5 6V6.81302C2.99256 6.45869 3.59691 6.25 4.25 6.25H15.75Z" fill="white" fill-opacity="0.92"/>
</svg>
