<svg width="30" height="30" viewBox="0 0 30 30" fill="none" xmlns="http://www.w3.org/2000/svg">
<rect width="30" height="30" rx="7" fill="#0A84FF"/>
<path d="M15 23.4736C19.6318 23.4736 23.4668 19.6304 23.4668 15.0068C23.4668 10.375 19.6235 6.54004 14.9917 6.54004C10.3682 6.54004 6.5332 10.375 6.5332 15.0068C6.5332 19.6304 10.3765 23.4736 15 23.4736ZM11.4307 19.3315C10.8579 19.6055 10.418 19.1572 10.6836 18.5928L13.0908 13.6787C13.2319 13.3882 13.4146 13.2056 13.6802 13.0811L18.5776 10.6904C19.1836 10.3999 19.6069 10.8481 19.3247 11.4292L16.9341 16.335C16.8013 16.6006 16.6104 16.7998 16.3364 16.9243L11.4307 19.3315ZM15.0083 16.0693C15.5894 16.0693 16.0625 15.5962 16.0625 15.0151C16.0625 14.4341 15.5894 13.9692 15.0083 13.9692C14.4355 13.9692 13.9624 14.4341 13.9624 15.0151C13.9624 15.5962 14.4355 16.0693 15.0083 16.0693Z" fill="white"/>
</svg>
